<?xml version="1.0" encoding="UTF-8"?>
<svg width="501px" height="501px" viewBox="0 0 501 501" version="1.1" xmlns="http://www.w3.org/2000/svg" xmlns:xlink="http://www.w3.org/1999/xlink">
    <!-- Generator: Sketch 54.1 (76490) - https://sketchapp.com -->
    <title>Artboard Copy 44</title>
    <desc>Created with Sketch.</desc>
    <g id="Artboard-Copy-44" stroke="none" stroke-width="1" fill="none" fill-rule="evenodd">
        <rect fill="#FFFFFF" x="0" y="0" width="501" height="501"></rect>
        <g id="shutterstock_464936399" opacity="0.452125186" transform="translate(136.000000, 112.000000)" fill="#52524F">
            <path d="M25,241.691681 C25,252.922422 34.2784742,262 45.4895026,262 L183.408541,262 C194.61957,262 204,252.922422 204,241.691681 L204,146 L25,146 L25,241.691681" id="Fill-3"></path>
            <path d="M219.988377,10.8674833 L210.276231,30.3233133 L210.276231,241.88641 C210.276231,256.854857 198.150901,269.196667 183.273435,269.196667 L45.5962025,269.196667 C30.7182762,269.196667 18.6951839,256.854857 18.6951839,241.88641 L18.6951839,30.33397 L9.03139372,10.8623867 C8.75046959,10.2934133 8.92731363,9.73787667 9.07007835,9.50621 C9.21284308,9.27408 9.52646494,8.80333333 10.1578534,8.80333333 L218.813562,8.80333333 C219.446332,8.80333333 219.785283,9.27547 219.928048,9.50852667 C220.070812,9.74112 220.272525,10.29851 219.988377,10.8674833 Z M227.510236,4.88446 C225.635874,1.82599667 222.384983,0 218.813562,0 L10.1578534,0 C6.59564333,0 3.34889721,1.81858333 1.47315297,4.865 C-0.403051811,7.91141667 -0.454170793,11.6458833 1.13189923,14.85493 L9.94508795,32.4402833 L9.94508795,241.88641 C9.94508795,261.79955 25.8034855,278 45.5962025,278 L183.273435,278 C203.066152,278 219.026327,261.79955 219.026327,241.88641 L219.026327,32.45094 L227.870372,14.8957033 C229.474402,11.6852667 229.384138,7.94246 227.510236,4.88446 L227.510236,4.88446 Z" id="Fill-4"></path>
            <path d="M153.374977,51 L191.625023,51 C193.488747,51 195,49.7181429 195,48 C195,46.2818571 193.488747,45 191.625023,45 L153.374977,45 C151.510788,45 150,46.2818571 150,48 C150,49.7181429 151.510788,51 153.374977,51" id="Fill-5"></path>
            <path d="M191.571462,64 L166.428538,64 C164.535237,64 163,65.6291333 163,67.5 C163,69.3708667 164.535237,71 166.428538,71 L191.571462,71 C193.464763,71 195,69.3708667 195,67.5 C195,65.6291333 193.464763,64 191.571462,64" id="Fill-6"></path>
            <path d="M153.374977,91 L191.625023,91 C193.488747,91 195,89.7181429 195,88 C195,86.2818571 193.488747,85 191.625023,85 L153.374977,85 C151.510788,85 150,86.2818571 150,88 C150,89.7181429 151.510788,91 153.374977,91" id="Fill-7"></path>
            <path d="M191.571462,105 L166.428538,105 C164.535237,105 163,106.629133 163,108.5 C163,110.370867 164.535237,112 166.428538,112 L191.571462,112 C193.464763,112 195,110.370867 195,108.5 C195,106.629133 193.464763,105 191.571462,105" id="Fill-8"></path>
            <path d="M153.374977,131 L191.625023,131 C193.488747,131 195,129.718143 195,128 C195,126.281857 193.488747,125 191.625023,125 L153.374977,125 C151.510788,125 150,126.281857 150,128 C150,129.718143 151.510788,131 153.374977,131" id="Fill-9"></path>
        </g>
    </g>
</svg>